# xmcd
#
# Track frame offsets:
#	150
#	16712
#	31187
#	46814
#	62159
#	74554
#	88762
#	105291
#	119521
#	134816
#	150018
#	163968
#
# Disc length: 2421 seconds
#
# Revision: 1
# Processed by: cddbd v1.5.2PL0 Copyright (c) Steve Scherf et al.
# Submitted via: audiograbber 1.83.01
#
DISCID=9809730c
DTITLE=The Accolade - The Accolade
DYEAR=2005
DGENRE=Country
TTITLE0=Hickory
TTITLE1=The Square
TTITLE2=Two Faced
TTITLE3=To Be Free
TTITLE4=One Fine Day
TTITLE5=Hour Of Sin
TTITLE6=Music Hall Blues
TTITLE7=While I Wait
TTITLE8=You'll Know When I'm Through
TTITLE9=South Coast Sunrise
TTITLE10=Train To Tennessee
TTITLE11=Closer All The Time
EXTD=
EXTT0=
EXTT1=
EXTT2=
EXTT3=
EXTT4=
EXTT5=
EXTT6=
EXTT7=
EXTT8=
EXTT9=
EXTT10=
EXTT11=
PLAYORDER=
